<?xml version="1.0" encoding="utf-8"?>
<!-- Generator: Adobe Illustrator 16.0.0, SVG Export Plug-In . SVG Version: 6.00 Build 0)  -->
<!DOCTYPE svg PUBLIC "-//W3C//DTD SVG 1.1//EN" "http://www.w3.org/Graphics/SVG/1.1/DTD/svg11.dtd">
<svg version="1.1" id="Layer_1" xmlns="http://www.w3.org/2000/svg" xmlns:xlink="http://www.w3.org/1999/xlink" x="0px" y="0px"
	 width="268.706px" height="284.647px" viewBox="0 0 268.706 284.647" style="enable-background:new 0 0 268.706 284.647;"
	 xml:space="preserve">
<path style="fill:#B3B3B3;" d="M133.924,0L0,47.131l21.162,175.462l112.902,62.055l113.486-62.896l21.155-175.455L133.924,0z
	 M133.924,0"/>
<path style="fill:#ECA523;" d="M255.348,56.437L133.61,14.924V269.82l102.021-56.461L255.348,56.437z M255.348,56.437"/>
<path style="fill:#FDB71E;" d="M15.028,57.186l18.134,156.923l100.447,55.713V14.918L15.028,57.186z M15.028,57.186"/>
<g>
	<rect x="133.627" y="64.178" style="fill:#BBBABA;" width="17.873" height="25.632"/>
	<rect x="49.126" y="64.178" style="fill:#F3F3F3;" width="84.458" height="25.632"/>
</g>
<g>
	<rect x="70.696" y="184.619" style="fill:#F3F3F3;" width="62.873" height="25.632"/>
	<rect x="133.604" y="184.619" style="fill:#BBBABA;" width="67.873" height="25.632"/>
</g>
<g>
	<g>
		<rect x="110.403" y="143.972" style="fill:#F3F3F3;" width="23.207" height="26.632"/>
	</g>
	<g>
		<rect x="133.654" y="143.972" style="fill:#BBBABA;" width="31.291" height="26.632"/>
	</g>
</g>
<g>
	<g>
		<rect x="89.421" y="104.325" style="fill:#F3F3F3;" width="44.192" height="25.632"/>
	</g>
	<g>
		<rect x="133.608" y="104.325" style="fill:#BBBABA;" width="88.067" height="25.632"/>
	</g>
</g>
</svg>
